<?xml version="1.0" encoding="UTF-8"?>
<svg id="Layer_2" data-name="Layer 2" xmlns="http://www.w3.org/2000/svg" xmlns:xlink="http://www.w3.org/1999/xlink" viewBox="0 0 107.32 128.65">
  <defs>
    <style>
      .cls-1, .cls-2, .cls-3, .cls-4 {
        fill: #7d277d;
      }

      .cls-5 {
        fill: #4e4e4e;
      }

      .cls-5, .cls-6, .cls-2, .cls-7, .cls-8, .cls-9 {
        fill-rule: evenodd;
      }

      .cls-6 {
        fill: #c8c7c6;
      }

      .cls-10 {
        fill: #010101;
      }

      .cls-11 {
        clip-path: url(#clippath-1);
      }

      .cls-7 {
        fill: #1a1a1a;
      }

      .cls-3 {
        clip-rule: evenodd;
      }

      .cls-4 {
        stroke: #fff;
        stroke-miterlimit: 10;
        stroke-width: .25px;
      }

      .cls-8 {
        fill: #c38bbe;
      }

      .cls-9 {
        fill: #ee343b;
      }

      .cls-12 {
        clip-path: url(#clippath);
      }
    </style>
    <clipPath id="clippath">
      <path class="cls-3" d="M79.45,65.55c1.04-1.03,1.68-2.47,1.68-4.05s-.64-3.02-1.68-4.05c-1.04-1.04-2.47-1.68-4.06-1.68s-3.02.64-4.06,1.68c-1.04,1.04-1.68,2.47-1.68,4.05s.64,3.02,1.68,4.05c1.04,1.04,2.47,1.68,4.06,1.68s3.02-.64,4.06-1.68h0Z"/>
    </clipPath>
    <clipPath id="clippath-1">
      <path class="cls-3" d="M49.28,67.71c.91-.9,1.47-2.16,1.47-3.54s-.56-2.64-1.47-3.54c-.91-.91-2.16-1.47-3.55-1.47s-2.64.56-3.55,1.47c-.91.9-1.47,2.16-1.47,3.54s.56,2.64,1.47,3.54c.91.91,2.16,1.47,3.55,1.47s2.64-.56,3.55-1.47h0Z"/>
    </clipPath>
  </defs>
  <g id="Layer_1-2" data-name="Layer 1">
    <path class="cls-9" d="M94.25,35.37c.3.3.67.65,1.04,1.01v-1.36c0-.12-1.14-1-1.97-1.62.04.45.11.93.22,1.19.05.11.33.41.71.79h0Z"/>
    <path class="cls-5" d="M28.22,104.96l-2.91-3.05,2.69-13.4,10.07-9.31,1.67-8.61s-1.6-1.45-2.21-4.16c-.61-2.71-.31-5.1-.31-5.1,0,0-3.83-.75-4.7-.72-.87.03-1.76.37-1.76.37,0,0-5.06,9.22-12.55,11.45-7.49,2.24-11.79.65-11.79.65l-5.11-3.6s3.68,1.21,10.01-4.23c6.33-5.45,9.84-9.92,15.41-10.32,5.57-.4,7.55.92,7.55.92l4.08,2.88s2.84-4.03,8.74-4.22c5.9-.18,8.92,0,8.92,0,0,0,6.09-1.24,8.47-2.22,2.38-.98,3.09-2.36,3.09-2.36l-4.67-4.38s3.76-7.12,4.03-7.36c.27-.24,3.76-4.18,3.76-4.18l-6.68-13.61s-5.03,1.7-6.72,2.9c-1.69,1.2-3.51,2.51-3.51,2.51,0,0,6.42,8.37,6.63,8.5.21.13-6.12,7.95-13.28,8.97-7.16,1.02-12.66-2.16-12.74-2-.08.16-3.54-2.24-3.54-2.24,0,0,8.18-3.23,13.45-7.91,5.27-4.67,6.65-9.52,6.65-9.52l-6.94-8.92s1.31-3.27,5.23-4.91c3.93-1.64,8.56-2.47,8.56-2.47l-1.45-3.13,3.27-1.53,13.7,31.26s4.51-3.24,7.7-3.94c3.2-.71,7.49-1.05,7.49-1.05l1.38.2,3.94-.75-.42,1.56,9,5.76-6.06,2.37-.36,3.62,2.2,3.78.22,3.47s-1.71.25-2.69.15c-.98-.11-1.56-.24-1.56-.24,0,0-1.2-2.16-2.73-3.2s-3.4-1.8-3.4-1.8c0,0-1.25,3.71-.73,6.6.53,2.89,1.09,6.67,1.09,6.67,0,0,1.27,3.69,1.09,6.67-.18,2.98-1,5.03-.89,5.03s9.21,4.47,9.21,4.47l-.55,15.21s7.76,18.64,7.76,18.45-3.45,0-3.58,0c-.13,0-8.03-17.45-8.03-17.45,0,0-2.18.36-4.29-.55-2.11-.91-3.11-2.45-3.11-2.45l4.94-3.4-1.81-4.46s-3.68.94-5.86.34c-2.18-.6-5.22-1.58-5.22-1.58l-1.54,2.49-1.4,23.46s2.65.45,3.63,1.29c.98.84,2.05,2.31,2.05,2.31h-6.91l-3.05-2.86-.09-15.92s-3.71-4.34-4.43-6.63c-.73-2.29-1.44-4.16-1.44-4.16l-10.61-2.07s-2.14,5.85-4.54,7.02c-2.4,1.16-3.42,1.74-3.42,1.74l-4.29,5.73,4.58,8.43s-5.18,6.72-6.87,7.05c-1.69.33-.55-4.89-.55-4.89l3.76-2.31-5.52-8.06s-3.05.91-2.99.91-5.71,11.93-5.71,11.93c0,0,2.91.51,3.03.82.13.31,1.27,3.51,1.27,3.51l-4.86-.23Z"/>
    <path class="cls-7" d="M84.73,32.08s-3.6,1.65-2.4,7.51c1.2,5.85-1.65,9.14-1.53,8.83.12-.3,7.2,6.5,7.39,6.47.19-.03-1.26-6.68-.96-8.85.3-2.17.54-4.31.54-4.31,0,0-3.87-3.85-3.05-9.65h0ZM83.88,56.63s3.67,3.74,3.38,9.09c-.29,5.34,1.24,1.24,1.24,1.24,0,0-.15,3.4,2.29,5.92,2.44,2.53,6.61-.96,6.61-.96l-1.74,11.49-1.73-3.85-2.52,1.73s1.9,6.05,1.83,6.07c-.07.02-2.45-.09-3.45-.47-1-.38.95-5.16.85-5.31-.1-.15-1.64-4.63-1.67-4.74-.03-.12-2.59.96-4.77.32-2.18-.65-6.05-1.94-6.05-1.94l-1.62,3.22s-.45,12.44-.59,12.43c-.15,0-4.52-4.51-4.52-4.51l5.34-9.32s-6.35-1.21-9.01-9.02c0,0,4.53,5.18,12.74,1.84,0,0,7.34-4.4,3.4-13.22ZM65.5,59.7s-1.52,2.95-5.11,3.43c-3.6.47-6.18-2.81-6.18-2.81,0,0,1.58,6.85-2.62,10.23-4.21,3.38-7.7,2.11-7.7,2.11,0,0-3.96-1.6-3.6-1.6s-2.6,8.6-2.6,8.6l-6.14,5.6,5.58,3.52s9.13-5.76,8.94-5.9c-.18-.14-8.83.47-8.83.47,0,0,1.56-4.08,1.21-4.14-.35-.07,11.1-1.96,14.05-6.62,2.96-4.65,2.1.8,2.1.8,0,0,10.86,1.95,10.62,2.04-.24.09-.95-8-.58-10.14.36-2.14.86-5.57.86-5.57ZM37.22,61.33c0-.17,1.42-2.54,1.42-2.54,0,0-4.89-3.09-4.94-2.98-.05.11-2.6,4.49-2.6,4.49,0,0,6.12,1.02,6.12,1.03ZM51.01,42.12s2.22-4.1,1.49-9.6c-.73-5.5-3.1-7.48-3.1-7.48l1.43-2.96,9.31,11.88s-2.89,5.71-9.13,8.16ZM58.83,22.47l-1.25-17.1,6.65,15.04-5.4,2.06ZM69.41,32.1l1.46-5.83,2.14,5.52-2.31,2.19-1.29-1.88ZM63.54,45.39c-.17-.17,3.27-1.36,7.16-5.4,3.89-4.04,8.26-5.47,8.26-5.47,0,0-7.36,7.4-8.26,8.97-.91,1.57-2.87,6.3-2.87,6.3l-4.29-4.4ZM94.58,34.46l-1.31-5.96-1.74,3.18,3.05,2.78Z"/>
    <path class="cls-8" d="M3.15,69.34s5.67,2.93,7.65,2.91c1.98-.02,5.23-3.34,5.23-3.34l-2.53,3.09s9.01-.63,16.93-11.54c0,0,1.41-1,1.32-1.06-.09-.05,4-.09,5.87,1.05l-.51,5.05.5-.33s2.57,6.07,7.92,5.98c5.35-.09,8.23-4.98,8.56-7.65l.44,2.31s-2.82,6.11-6.56,6.71c0,0-2.29,3.3-4.47,4.87-2.18,1.57-4.53,1.96-4.56,1.82-.03-.15-.24-.57-.24-.57,0,0,5.27-1.94,7.24-5.46,0,0-4.68-.87-6.23-2.89-1.55-2.02-2.58-3.89-2.58-3.89l-.16-5.11-5.86-.64s-4.53,8.69-11.99,11.49c-7.46,2.8-13.52.37-13.52.37l-4.28-3.01,1.83-.16ZM65.81,62.88l.61-1.35s1.29,7.44,8.82,8.07c7.52.63,9.05-8,9.39-9.74.34-1.74.41,1.64.41,1.64,0,0-.35,3.57-1.51,5.25-1.17,1.67-2.74,3.67-2.74,3.67l-1.59,2.91s8.96-1.37,9.51-14.29c0,0,.78,1.78.57,4.88-.21,3.1-2.41,6-2.41,6,0,0,3.3,1.42,6.63-.24l.51.08s-1.6,1.67-3.98,1.89c-2.38.22-4.11-.55-4.11-.55l-5.43,3.67s8.76,2.99,16.66-3.48l.21.86-5.04,3.32-2.4,1.07,11.96,27.53,2.47.45-3,.52-7.87-17.88s-1.06.67-2.41.35c-1.35-.31-4.21-1.68-4.12-1.78.09-.1-.85-1.24-.85-1.24l3.05-1.51-1.51,1.44s1.13,2.11,5.65,1.89l-4.43-9.57s-1.79.43-4.5.21c-2.71-.22-6.26-1.63-6.26-1.63l2.91-5.83s-5.59,2.81-9.99.25c-4.4-2.56-5.22-6.84-5.22-6.84ZM86.38,52.51l.41-7.33,1.38,9.18s-1.44-.94-1.79-1.85ZM63.1,45.73l.44-.34,4.73,2.73,3.14-4.42s-1.25,3.99-1.47,4.83c-.21.84-1.98.93-1.98.93,0,0-3.34-1.75-4.86-3.73ZM84.81,35.76c0-.12.46-2.11.46-2.11,0,0,.87,4.42,3.53,7.21,0,0,4.77,2.1,5.85,4.68l1.5-.89s-.21,1.17-.26,1.49c-.05.32,1.79,0,1.79,0l.57-2.32.19,3.03s-.81.61-2.24.41c-1.43-.2-1.94-.39-1.94-.39,0,0-1.72-2.83-3.46-3.76-1.74-.93-3.01-1.64-3.01-1.64,0,0-1.83-2.01-2.98-5.72ZM95.18,35.05l6.78-1.65-5.85,2.68-.94-1.02ZM31.68,39.39c0-.05.23-.46.23-.46,0,0,5.31,2.13,5.96,2.27,0,0,9.68-3.13,17.58-12.58,0,0,.93-.29,0,1.1s-7.45,8.07-9.78,9.34c-2.33,1.27-5.42,2.56-5.42,2.56,0,0,9.28,3.37,19.42-7.55l.5.28s-5.47,7.4-11.67,8.56c-6.2,1.16-13.67-.67-16.83-3.54ZM44.54,13.58v-.74s3.67,4.03,3.67,4.03c0,0,3.78-5.51,11.37-6.39,0,0-5.84,2.6-7.34,4.01-1.49,1.41-2.84,3.1-2.84,3.1l4.92,6.13s4.3-3.33,9.45-3.57l-6.62-17.85,14.02,31.22s-.91.54-.8.64c.11.1-5.83-13.81-5.83-13.81,0,0-1.16-.06-4.09,1.5-2.93,1.56-6.3,3.72-6.3,3.72l-9.62-12ZM25.35,102.24l.37-.5,2.95,2.28,3.07-.13s.49-.49.12-1.32c-.37-.83-2.28-1.54-2.28-1.54l-1.41.45,4.86-12.32s-2.32.04-2.83-.17c-.51-.21-1.16-.7-1.16-.7,0,0,3.86.68,7.74-1.02l.13-.76s6.98,8.07,7.18,9.02c.2.95-2.71,2.13-2.71,2.13l-1.61.91.95,2.81s5.03-3.86,5.39-6.11c0,0-4.98-6.43-5.14-7.94-.16-1.51,3.59-4.77,3.6-4.6,0,.17-6.24.55-6.24.55l-.66-.29s15.02.65,16.73-15.58l.61.27s-.13,4.31-.22,4.31c-.09,0,10.11,1.67,10.11,1.67l1.14,2.88s3.44,5.69,4.89,7.22l2.56-4.04.65-1.07s-1.02-1.22-1.4-2.33c-.38-1.11-.19-4.91-.19-4.91,0,0,1.01,4.74,2.26,6.22,0,0,5.29-7.16,5.22-7.36s-7.48,14.1-7.48,14.1l-.08,17.18,2.49,2.49,5.82.55-6.47.41-3.43-3.12-.09-15.38s-2.87-3.98-3.79-5.87c-.92-1.89-2.2-5.31-2.2-5.31,0,0-10.41-1.69-10.49-1.73-.08-.03-1.33,2.91-3.52,5.42-2.19,2.51-4.96,3.25-4.83,3.34.13.1-4.15,4.66-3.73,5.62.42.96,4.6,8.15,4.49,8.2s-2.08,2.85-3.57,4.63c-1.49,1.78-3.39,2.51-3.39,2.51,0,0-.64-5.27-.55-5.11.1.16,3.52-1.43,3.53-2.42.01-.99-5.45-7.68-5.45-7.68l-3.16,1.19s-5.08,11.43-5.17,11.39c-.09-.04,2.64.23,3.53,2.06.89,1.84.73,2.53.67,2.47-.05-.05-4.97-.23-4.97-.23l-2.87-2.72Z"/>
    <path class="cls-6" d="M31.6,39.12s14.02-2.2,20.55-14.76l3.82,4.26s-4.18,5.61-7.48,8.28c-3.3,2.66-8.97,5.37-8.97,5.37,0,0,8.69-1.16,17.05-11.09l3.41,3.09-10.63-14.69s4.77-6.34,11.43-7.5l-.79-1.23s-3.99.81-5.83,2.19c-1.84,1.38-5.64,5.44-5.64,5.44l-3.12-4.51s2.91-6.38,13.08-7.48l-1.13-2.76,1.6-.8s13.96,29.32,13.87,29.23-6.35,6.81-6.72,7.5c-.38.69-2.79,5.92-2.79,5.92l.72.34s8.34-16.34,23.93-17.28c0,0-2.05,1.29-2.58,2.58-.53,1.29-.78,3.89-.7,3.7.08-.19,2.27-3.7,3.57-3.99,1.3-.29.45,3.67.67,4.58.22.91,4.5,5.8,5.42,6.82.92,1.02,1.03,2.08,1.03,2.08l.1-2.91s2.27,2.17,2.51,3.44c.24,1.27.46-1.62.46-1.62l-2.48-3.53.04-3.82s-4.64-4.26-4.55-4.26,1.24-2.11,1.24-2.11l8.33,4.7,1.43-.56-9.05-5.8s.17-1.57.18-1.52c0,.05-3.39.81-3.4.75-.01-.06-5.11-.31-9.25.87-4.15,1.18-7.49,3.85-7.49,3.85L59.32.45l-2.66,1.43.85,3.51s-7.34,1.17-9.87,3.27c-2.53,2.1-3.89,4.23-3.89,4.23l7.09,9.85s-3.08,8.58-19.23,16.39h0ZM45.66,97.65s.14-1.44-.43-2.41c-.56-.96-1.64-3.65-1.64-3.65l3.09,4.4-1.02,1.66ZM1.54,69.48s4.21,3.01,10.33-2.2c6.12-5.22,6.67-4.85,6.98-4.4.31.45-4.39,8.91-4.39,8.91,0,0,4.69-3.35,6.97-9.15,2.28-5.8,9.29-5.29,9.49-5.14.19.15-.73,3.53-.58,3.45.15-.07,2.56-3.72,2.56-3.72,0,0,3.21,1.23,5.03,1.98,1.82.75-3.7-4.11-7.17-4.42-3.47-.31-7.23.66-7.2.76.04.1-8.03,5.2-9.85,7.71-1.82,2.51-6.52,5.69-12.17,6.22ZM88.06,68.11l5.17,2.04s-2.61,1.58-3.99,1.58-3.33-.15-3.33-.15c0,0,3.88,2.59,8.84-.75l2.24,1.07s-.96,1.38-.85,1.51c.11.13.98,12.99,1.07,12.99.1,0-4.78-10.48-4.78-10.48l-1.16.2s12.57,28.73,12.57,29.07,1.49-.34,1.49,0-8.18-18.5-8.18-18.5l.76-15.97-9.28-3.91-.57,1.28ZM86.35,84.7l4.96-1.65-.67-1.47-4.29,3.12ZM78.69,104.8s-.87-1.89-4.08-3.19l.29-21.36,1.85-3.22-1.29,24.39s2.36.01,3.63,1.23c1.27,1.22,1.6,2.1,1.6,2.1l-2,.04ZM65.57,76.49l1.71,4.1s-2.36-7.93-.66-14.23l4.02,3.65s-.52,7.55,4,10.34c0,0-2.29-4.13-2.49-6.87-.2-2.74-.23-3.32-.23-3.32,0,0-3.34-1.1-4.82-3.8-1.48-2.7-1.56-3.75-1.56-3.75,0,0-2.38,6.76.04,13.88ZM25.8,102.27s3.22-11.87,3.69-12.16c.47-.29,2.76-.75,2.76-.85,0-.11-2.66-.6-2.66-.6l7.53-6.51-.28,4.72,1.13-2.26,2.24-1-1.87-.23.74-2.93s7.35-1.8,8.75-7.35c0,0-2.59,3.31-4.33,4.27-1.74.96-3.75,1.14-3.71,1.3.04.16,1.73-6.69,1.73-6.69,0,0-2.53-1.83-3.27-3.77-.74-1.94-1.18-3.7-1.18-3.7l3.8-.47-.15-.83-3.35-.05s.27-1.66.22-1.66c-.05,0,3.27.49,3.27.49,0,0,2.05-3.1,5.36-2.81,3.31.29,4.25,2.87,4.25,2.87l3.36-1.31.38,1.09-3.33,1.33.18,1.15,3.44-1.22s.29-2.93-1.3-4.18c-2.44-1.92,9.14-.81,12.58,1.4l3.76.52v-.95l-3.16-.71.4-1.25,3.5.99s1.54-3.15,4.82-3.22c3.28-.06,5.75,2.97,5.75,2.97l2.82-1.65.62,1.29-3.03,1.42.2.93,3.47-1.07s-1.51-5.91-5.71-7.02c-4.2-1.11-7.63.48-9,1.18-1.36.7-4.25,4.35-4.25,4.35l-3.6-1.58s3.83-3.02,7.72-6.07c3.89-3.05,10.09-.78,10.09-.78l-1.58,3.1,1.53.75,1.74-2.91.78.78-1.47,2.64,3.56,4.02,2.13-1.33s2.54,3.76,2.18,6.8c-.36,3.04.53-4.2.53-4.2,0,0-.81-5.81-5.44-8.74-4.63-2.93-1.9-9.58,1.31-11.76l-.29-.46s-2.93,2.25-3.93,4.49c-1,2.24-2.02,5.11-2.11,5.05-.09-.05-7.03-.07-7.03-.07,0,0,2.04-9.41,12.15-15.09,0,0-6.47,2.68-8.6,5.2-2.13,2.52-5.78,7.96-5.78,7.96l-2.25,4.05s-5.73,3.92-10.05,4.25c-4.32.32-9.13-.2-11.69.42-2.56.62-6.54,3.2-6.62,3.12-.09-.08-3.4,4.07-2.12,8.27,1.28,4.2,2.86,5.2,2.86,5.2l-2.28,8.43s-9.99,8.96-9.85,8.99c.14.03-2.46,12.98-2.46,12.98l.43.66Z"/>
    <g>
      <path class="cls-2" d="M79.45,65.55c1.04-1.03,1.68-2.47,1.68-4.05s-.64-3.02-1.68-4.05c-1.04-1.04-2.47-1.68-4.06-1.68s-3.02.64-4.06,1.68c-1.04,1.04-1.68,2.47-1.68,4.05s.64,3.02,1.68,4.05c1.04,1.04,2.47,1.68,4.06,1.68s3.02-.64,4.06-1.68h0Z"/>
      <g class="cls-12">
        <rect class="cls-1" x="69.64" y="55.77" width="11.48" height="11.46"/>
      </g>
    </g>
    <g>
      <path class="cls-2" d="M49.28,67.71c.91-.9,1.47-2.16,1.47-3.54s-.56-2.64-1.47-3.54c-.91-.91-2.16-1.47-3.55-1.47s-2.64.56-3.55,1.47c-.91.9-1.47,2.16-1.47,3.54s.56,2.64,1.47,3.54c.91.91,2.16,1.47,3.55,1.47s2.64-.56,3.55-1.47h0Z"/>
      <g class="cls-11">
        <rect class="cls-1" x="40.71" y="59.16" width="10.03" height="10.02"/>
      </g>
    </g>
    <path class="cls-8" d="M77.88,63.99c.64-.64,1.03-1.52,1.03-2.49s-.39-1.86-1.03-2.49c-.64-.64-1.52-1.03-2.5-1.03s-1.86.39-2.5,1.03c-.64.64-1.03,1.52-1.03,2.49s.39,1.86,1.03,2.49c.64.64,1.52,1.03,2.5,1.03s1.86-.39,2.5-1.03h0Z"/>
    <path class="cls-8" d="M47.91,66.35c.56-.56.9-1.33.9-2.18s-.35-1.62-.9-2.18c-.56-.56-1.33-.9-2.18-.9s-1.63.34-2.18.9c-.56.56-.9,1.33-.9,2.18s.34,1.62.9,2.18c.56.56,1.33.9,2.18.9s1.63-.34,2.18-.9h0Z"/>
    <path class="cls-2" d="M76.4,62.51c.26-.26.42-.62.42-1.01s-.16-.75-.42-1.01c-.26-.26-.62-.42-1.01-.42s-.76.16-1.01.42c-.26.26-.42.62-.42,1.01s.16.75.42,1.01c.26.26.62.42,1.01.42s.76-.16,1.01-.42h0Z"/>
    <path class="cls-2" d="M46.61,65.05c.23-.23.37-.54.37-.88s-.14-.66-.37-.88c-.23-.23-.54-.37-.89-.37s-.66.14-.89.37c-.23.23-.37.54-.37.88s.14.66.37.88c.23.23.54.37.89.37s.66-.14.89-.37h0Z"/>
    <path class="cls-10" d="M51.58,58.29c-1.49-1.49-3.54-2.41-5.81-2.41s-4.33.92-5.81,2.41c-1.49,1.49-2.4,3.54-2.4,5.81s.92,4.32,2.4,5.81c1.49,1.49,3.54,2.41,5.81,2.41s4.33-.92,5.81-2.41c1.49-1.49,2.4-3.54,2.4-5.81s-.92-4.32-2.4-5.81h0ZM48.99,60.88c-.82-.82-1.97-1.33-3.23-1.33s-2.4.51-3.23,1.33c-.82.82-1.33,1.96-1.33,3.22s.51,2.4,1.33,3.22c.82.82,1.97,1.33,3.23,1.33s2.4-.51,3.23-1.33c.82-.82,1.33-1.96,1.33-3.22s-.51-2.4-1.33-3.22ZM45.76,58.51c1.54,0,2.94.63,3.95,1.64,1.01,1.01,1.64,2.41,1.64,3.95s-.63,2.94-1.64,3.95c-1.01,1.01-2.41,1.64-3.95,1.64s-2.94-.63-3.95-1.64c-1.01-1.01-1.64-2.41-1.64-3.95s.63-2.94,1.64-3.95c1.01-1.01,2.41-1.64,3.95-1.64ZM79.32,57.7c-.98-.98-2.34-1.59-3.85-1.59s-2.86.61-3.85,1.59c-.98.98-1.59,2.34-1.59,3.84s.61,2.86,1.59,3.84c.98.98,2.34,1.59,3.85,1.59s2.86-.61,3.85-1.59c.98-.98,1.59-2.34,1.59-3.84s-.61-2.86-1.59-3.84ZM75.48,55.08c1.78,0,3.4.72,4.57,1.89,1.17,1.17,1.9,2.79,1.9,4.57s-.72,3.4-1.9,4.57c-1.17,1.17-2.79,1.89-4.57,1.89s-3.4-.72-4.57-1.89c-1.17-1.17-1.9-2.79-1.9-4.57s.72-3.4,1.9-4.57c1.17-1.17,2.79-1.89,4.57-1.89ZM66.92,58.56c-.04.13-.09.28-.14.44-.23.8-.36,1.66-.36,2.54,0,2.5,1.01,4.76,2.65,6.4,1.64,1.64,3.9,2.65,6.41,2.65s4.77-1.01,6.41-2.65c1.64-1.64,2.65-3.9,2.65-6.4s-1.01-4.76-2.65-6.4c-1.64-1.64-3.9-2.65-6.41-2.65s-4.77,1.01-6.41,2.65c-.95.95-1.7,2.12-2.15,3.42ZM71.55,70.83c-1.2-.51-2.29-1.25-3.2-2.16-1.35-1.35-2.32-3.07-2.73-5.01-2.31,12.73,3.68,20.25,5.41,22.12l3.36-5.69c-1.04-1.26-1.75-2.66-2.19-4.1-.52-1.7-.69-3.47-.65-5.16ZM80.05,70.53c-1.37.7-2.92,1.09-4.57,1.09-1.01,0-1.99-.15-2.91-.43-.01,1.49.16,3.02.61,4.49.37,1.21.94,2.39,1.77,3.46l5.1-8.62ZM75.93,79.51l-4.29,7.25v14.93l2.83,2.83h5.53c-.78-1.02-2.44-2.72-4.86-2.87l-.51-.03.03-.51,1.28-21.59ZM47.83,73.11c-.83,1.57-2.05,3.19-3.88,4.46-1.44,1.01-3.25,1.79-5.51,2.15l-.76,3.25c15.08-.09,16.89-10.03,16.73-15.58-.47,1.23-1.19,2.33-2.11,3.25-1.21,1.21-2.75,2.08-4.47,2.48ZM40.34,71.59l-1.65,7.05c1.91-.36,3.44-1.04,4.67-1.9,1.41-.98,2.43-2.2,3.17-3.42-.25.02-.51.03-.77.03-2.02,0-3.9-.65-5.42-1.76ZM37.45,84l-.54,2.5c.99,1.3,6.79,8.97,6.56,9.82h0c-.21.79-2.82,1.89-3.7,2.23,0,0,.27,4.05.17,4.11,0,0,1.57-.96,3.49-2.88,1.06-1.06,2.07-2.33,2.71-3.71-.78-1.26-4.49-7.28-4.4-8.4.07-.79,2.09-3.1,3.61-4.74-2.16.68-4.76,1.08-7.9,1.08ZM64.58,74.73c-.52-2.64-.7-5.7-.29-9.16l-9.07-.79c.25,1.73.5,4.99-.38,8.34l9.74,1.6ZM92.9,37.87v-1.44c0-.13-1.21-1.05-2.09-1.71.04.47.11.98.24,1.26.05.12.34.43.75.84.32.32.7.69,1.1,1.06ZM94.24,46.06c.59-.65,1.42-1.92.66-3.45-.98-1.96-1.57-2.85-1.79-3.15-.68-.62-1.45-1.34-2.05-1.94-.48-.48-.84-.9-.95-1.13-.36-.79-.39-2.74-.39-2.75v-1.11l.85.72s3.35,2.75,3.35,3.17v2.42c.25.35.89,1.31,1.89,3.31.99,1.99.01,3.63-.75,4.5.76.16,1.91.28,2.9-.08v-2.92s-.34-.44-.75-1.01c-.77-1.07-1.76-2.45-1.76-3.11,0-.61.08-2.46.1-3.1l-4.51-4.49-.27-.27.17-.33,2.17-4.23c-3.25.77-12.68,3.96-4.92,14.11.71.35,4.65,2.38,6.02,4.83ZM91.95,76.23c-.8.34-1.6.61-2.38.8l11.91,27.48h2.87l-12.4-28.28ZM36.7,87.91c-.46-.6-.75-.98-.75-.99l-.14-.19.05-.23.54-2.52h-.01s.14-.61.14-.61h0s0,0,0,0h0s.61-2.59.61-2.59l-8.1,7.5c1.93.39,3.54.44,4.85.31,1.16-.12,2.09-.38,2.81-.67ZM33.51,89.65c-1.42.1-3.13,0-5.14-.46l-2.65,12.55,2.65,2.77h4.14c-.28-1.05-1.14-3.16-3.52-3.07l-.83.03.34-.76,5-11.07ZM92.82,87.12l-2.23-5.13-3.8,2.56c.85.98,1.78,1.62,2.73,2.01,1.12.47,2.26.6,3.3.56ZM97.42,72.48c-1.48,1.47-3.01,2.54-4.54,3.31l3.81,8.68.73-11.99ZM53.18,55c-.13,0-.2-.01-.2-.01h0c-2.08-.21-3.88-.15-5.4.05,1.83.36,3.46,1.26,4.72,2.53,1.56,1.55,2.56,3.66,2.69,5.99,0,.04.02.1.04.18l9.39.81c.28-1.84.72-3.8,1.37-5.86h0s.03-.09.03-.09c-5.02-2.23-9.22-3.26-12.65-3.61ZM96.22,35.64l5.29-2.08-8.09-4.72-1.36,2.65,4.16,4.15ZM89.1,27.44c-17.04-.42-24.49,15.43-25.56,17.95.74.65,2.8,2.45,4.17,3.72,1.47-4.39,3.82-7.81,6.31-10.42,4.34-4.55,9.16-6.66,10.63-7.24.89-1.88,2.67-3.16,4.45-4.01ZM70.7,33.53c.58-.54,1.19-1.07,1.84-1.58L59.13,1.38l-1.97.93,13.54,31.22ZM36.81,61.76c-.92-.46-2.47-.52-4.12-.6-.48-.02-.97-.04-1.43-.07-2.03,3.73-4.9,8.25-11.65,11.25-12.95,5.75-18.84-3-18.85-3.03l-.65-.94,1.13.14c5.39.65,7.92-1.78,11.49-5.21,2.29-2.2,4.98-4.79,9.09-7.28,3.88-2.36,7.4-2.44,10.33-1.54,2.66.81,4.83,2.43,6.37,3.88.22-.28.46-.54.71-.79.35-.35.73-.68,1.14-.97.07-.06,4.09-3.42,12.68-2.63h0s6.95.5,13.22-3.6c.23-.19.46-.37.7-.55-1.69-1.57-4.37-3.89-4.38-3.9l-.28-.24.13-.34s2.26-5.87,7.46-11.06l-5.71-13.17c-1.57.34-3.12.95-4.55,1.67-1.96.99-3.7,2.17-4.98,3.15l6.04,7.81.21.28-.18.3c-.03.05-10.24,17.86-30.28,4.92l-.9-.58,1.01-.34s15.68-5.15,19.8-16.26l-6.85-8.87-.2-.26.16-.29c1.3-2.44,3.31-4.13,5.47-5.3,2.98-1.62,6.23-2.24,8.2-2.49l-1.13-2.61-.2-.46.45-.21,2.9-1.36.48-.22.21.48,13.52,30.83c4.43-3.23,10.34-5.53,17.97-4.76,1.5-.48,2.64-.65,2.66-.65l1-.15-.46.9-.65,1.27,9.05,5.29.92.54-.99.39-6.28,2.46c-.03.69-.1,2.25-.1,2.94,0,.34.88,1.56,1.57,2.51.52.72.95,1.32.95,1.61v3.58l-.29.14c-2.07.99-4.81.02-4.81.02l-.24-.08-.08-.24c-.68-2.04-3.96-3.96-5.32-4.68-1.47,3.58.86,14.02,1,14.65.46,1.41.71,2.92.71,4.48,0,1.78-.32,3.48-.91,5.05l9.16,4.04.32.14-.03.54-.93,15.22,8.01,18.28.32.72h-5.11l-.14-.31-7.41-17.1c-1.27.09-2.71-.03-4.13-.62-1.23-.51-2.44-1.38-3.5-2.76l-.33-.43.45-.31,4.42-2.98-1.64-3.78c-4.95.91-9.19-.69-10.52-1.28l-.95,1.6-1.37,23.09c3.71.52,5.7,4.1,5.71,4.11l.43.76h-7.8l-.15-.15-3.13-3.13-.15-.15v-15.28c-.79-.79-4.25-4.53-5.8-11.02l-10.27-1.69c-1.01,3.03-3.04,6.02-6.93,7.9-.75.77-4.79,4.9-4.86,5.72-.08.92,4.37,7.98,4.39,8l.14.23-.1.25c-.69,1.62-1.83,3.08-3.03,4.28-2.11,2.11-4.93,3.62-5.27,3.62,0,0-.1-5.97-.09-5.99l.03-.32.3-.12s3.25-1.23,3.36-1.65c.07-.32-3.2-4.72-5.14-7.29-.69.3-1.56.58-2.64.76l-4.94,10.93c3.38.44,3.9,4.49,3.9,4.51l.08.58h-5.79l-.15-.16-2.99-3.13-.19-.2.06-.26,2.71-12.85.12-.63.14-.13,9.93-9.19,1.9-8.14c-.08-.07-.16-.15-.23-.22-1.67-1.67-2.71-3.98-2.71-6.54,0-.81.1-1.59.3-2.34ZM37.92,59.2c-1.01-.96-2.31-2.01-3.86-2.82-.77.9-1.45,2.17-2.21,3.61l-.06.11c.32.02.63.03.94.04,1.69.07,3.27.14,4.39.64.21-.55.48-1.08.79-1.57ZM85.42,38.82c-1.4.9-2.51,2.11-3.38,3.39-1.27,1.89-2.03,3.95-2.46,5.44,2.35.69,4.45,1.96,6.13,3.65.67.67,1.27,1.4,1.8,2.19-.62-3.71-1.24-9.15-.14-11.65-.82-1.08-1.47-2.08-1.97-3.02ZM78.6,47.39c.45-1.57,1.25-3.75,2.6-5.76.96-1.42,2.19-2.76,3.78-3.75-.9-2.03-1.07-3.72-.76-5.14-1.94.86-5.85,2.89-9.45,6.65-2.24,2.35-4.36,5.37-5.78,9.19.51-.26,1.04-.48,1.59-.68,1.54-.55,3.19-.85,4.91-.85,1.07,0,2.11.12,3.12.34ZM94.57,70.15c-1.35,1.12-2.75,1.67-4.07,1.89-1.82.3-3.46-.05-4.59-.45-1.74,1.8-3.94,3.15-6.41,3.87,3.18,1.13,10.99,2.85,17.65-4.17l-2.58-1.14ZM86.66,70.75c.97.29,2.27.5,3.68.27,1.02-.17,2.1-.57,3.17-1.35l-4.83-2.13c-.53,1.16-1.21,2.24-2.01,3.21ZM48.46,17.91c1.6-2.28,3.51-3.93,5.48-5.12,1.91-1.15,3.87-1.87,5.64-2.32l-2.01-4.63c-1.85.2-5.15.78-8.14,2.4-1.91,1.04-3.7,2.51-4.9,4.59l3.92,5.07ZM60,11.43c-1.72.42-3.65,1.11-5.52,2.24-1.93,1.17-3.81,2.8-5.35,5.09l4.91,6.36c1.33-1.01,3.12-2.24,5.15-3.26,1.44-.72,3-1.34,4.6-1.71l-3.78-8.72ZM56.11,29.49c-2.46,3.68-5.2,6.37-7.85,8.33-3.26,2.41-6.4,3.73-8.74,4.44,12.24,3.15,18.99-6.35,20.15-8.17l-3.56-4.61ZM37.66,41.7c2.28-.53,6.03-1.78,9.99-4.7,2.64-1.95,5.37-4.65,7.8-8.37l-4.34-5.61c-3.92,9.47-15.69,14.58-19.21,15.92,2.03,1.23,3.95,2.13,5.76,2.76ZM24.75,55.72c-.83.81-1.66,1.8-2.43,2.98-.71,1.08-1.37,2.34-1.96,3.8-1.15,2.85-2.49,5.1-3.81,6.87-1.26,1.68-2.52,2.92-3.63,3.82,1.85-.2,3.94-.74,6.28-1.78,7.1-3.15,9.74-8.12,11.75-11.9.74-1.39,1.39-2.62,2.17-3.58-.41-.17-.82-.33-1.26-.46-2.07-.63-4.47-.73-7.1.26ZM11.09,73.27c1.26-.85,2.94-2.27,4.64-4.52,1.28-1.7,2.56-3.87,3.68-6.64.61-1.52,1.31-2.83,2.06-3.97.29-.44.58-.85.87-1.23-3.99,2.42-6.65,4.98-8.9,7.14-3.5,3.36-6.05,5.82-11.07,5.6,1.26,1.3,4.1,3.57,8.72,3.63ZM75.48,51.46c2.78,0,5.31,1.13,7.13,2.95,1.83,1.83,2.96,4.35,2.96,7.13s-1.13,5.3-2.96,7.13c-.19.19-.38.37-.59.54l-3.17,5.36c2.74-.71,5.14-2.25,6.92-4.35,1.98-2.34,3.17-5.37,3.17-8.68,0-3.72-1.51-7.08-3.94-9.51-2.44-2.43-5.8-3.94-9.52-3.94-1.61,0-3.14.28-4.56.79-.9.32-1.76.74-2.56,1.25-3.67,2.91-7.76,4.1-10.81,4.58,2.56.59,5.42,1.52,8.6,2.93l.06-.17h.04c.51-1.13,1.22-2.17,2.1-3.04,1.83-1.82,4.35-2.95,7.13-2.95Z"/>
    <path class="cls-9" d="M91.79,36.8c.32.32.7.69,1.1,1.06v-1.44c0-.13-1.21-1.05-2.09-1.71.04.47.11.98.24,1.26.05.12.34.43.75.84h0Z"/>
    <g>
      <g>
        <path class="cls-4" d="M17.28,114.16v5.8h-2.61l-2.87-1.63h-1.85l7.32,4.16h-6.62l-6.87-3.91v3.91H.47v-11.58h13.51l3.3,3.25ZM13.98,116.7v-1.19l-1.38-1.34H3.79v2.53h10.19Z"/>
        <path class="cls-4" d="M22.18,119.14h-4.21v-1.63h4.21v1.63Z"/>
        <path class="cls-4" d="M36.37,110.92l3.3,3.25v5.08l-3.3,3.25h-10.19l-3.32-3.25v-5.08l3.32-3.25h10.19ZM26.18,115.52v2.38l1.36,1.34h7.46l1.36-1.34v-2.38l-1.36-1.36h-7.46l-1.36,1.36Z"/>
        <path class="cls-4" d="M44.57,119.14h-4.21v-1.63h4.21v1.63Z"/>
        <path class="cls-4" d="M58.77,110.92l3.3,3.25v5.08l-3.3,3.25h-13.51v-11.58h13.51ZM57.38,119.25l1.38-1.34v-2.38l-1.38-1.36h-8.81v5.08h8.81Z"/>
        <path class="cls-4" d="M66.96,119.14h-4.21v-1.63h4.21v1.63Z"/>
        <path class="cls-4" d="M82.56,110.92l1.9,3.25h-13.49v.92h7.63l1.92,3.25h-4.53l-2.87-1.61h-2.16v2.53h11.59l1.9,3.25h-16.81v-11.58h14.91Z"/>
        <path class="cls-4" d="M89.36,119.14h-4.21v-1.63h4.21v1.63Z"/>
        <path class="cls-4" d="M103.56,110.92l3.3,3.25v5.08l-3.3,3.25h-10.19l-3.32-3.25v-5.08l3.32-3.25h10.19ZM93.37,115.52v2.38l1.36,1.34h7.46l1.36-1.34v-2.38l-1.36-1.36h-7.46l-1.36,1.36Z"/>
      </g>
      <text/>
    </g>
  </g>
</svg>